<svg id="visual" viewBox="0 0 960 540" width="960" height="540" xmlns="http://www.w3.org/2000/svg" xmlns:xlink="http://www.w3.org/1999/xlink" version="1.1"><rect x="0" y="0" width="960" height="540" fill="#001220"></rect><defs><linearGradient id="grad1_0" x1="43.8%" y1="100%" x2="100%" y2="0%"><stop offset="14.444444444444446%" stop-color="#009473" stop-opacity="1"></stop><stop offset="85.55555555555554%" stop-color="#009473" stop-opacity="1"></stop></linearGradient></defs><defs><linearGradient id="grad1_1" x1="43.8%" y1="100%" x2="100%" y2="0%"><stop offset="14.444444444444446%" stop-color="#009473" stop-opacity="1"></stop><stop offset="85.55555555555554%" stop-color="#00726f" stop-opacity="1"></stop></linearGradient></defs><defs><linearGradient id="grad1_2" x1="43.8%" y1="100%" x2="100%" y2="0%"><stop offset="14.444444444444446%" stop-color="#00505e" stop-opacity="1"></stop><stop offset="85.55555555555554%" stop-color="#00726f" stop-opacity="1"></stop></linearGradient></defs><defs><linearGradient id="grad1_3" x1="43.8%" y1="100%" x2="100%" y2="0%"><stop offset="14.444444444444446%" stop-color="#00505e" stop-opacity="1"></stop><stop offset="85.55555555555554%" stop-color="#002f42" stop-opacity="1"></stop></linearGradient></defs><defs><linearGradient id="grad1_4" x1="43.8%" y1="100%" x2="100%" y2="0%"><stop offset="14.444444444444446%" stop-color="#001220" stop-opacity="1"></stop><stop offset="85.55555555555554%" stop-color="#002f42" stop-opacity="1"></stop></linearGradient></defs><defs><linearGradient id="grad2_0" x1="0%" y1="100%" x2="56.3%" y2="0%"><stop offset="14.444444444444446%" stop-color="#009473" stop-opacity="1"></stop><stop offset="85.55555555555554%" stop-color="#009473" stop-opacity="1"></stop></linearGradient></defs><defs><linearGradient id="grad2_1" x1="0%" y1="100%" x2="56.3%" y2="0%"><stop offset="14.444444444444446%" stop-color="#00726f" stop-opacity="1"></stop><stop offset="85.55555555555554%" stop-color="#009473" stop-opacity="1"></stop></linearGradient></defs><defs><linearGradient id="grad2_2" x1="0%" y1="100%" x2="56.3%" y2="0%"><stop offset="14.444444444444446%" stop-color="#00726f" stop-opacity="1"></stop><stop offset="85.55555555555554%" stop-color="#00505e" stop-opacity="1"></stop></linearGradient></defs><defs><linearGradient id="grad2_3" x1="0%" y1="100%" x2="56.3%" y2="0%"><stop offset="14.444444444444446%" stop-color="#002f42" stop-opacity="1"></stop><stop offset="85.55555555555554%" stop-color="#00505e" stop-opacity="1"></stop></linearGradient></defs><defs><linearGradient id="grad2_4" x1="0%" y1="100%" x2="56.3%" y2="0%"><stop offset="14.444444444444446%" stop-color="#002f42" stop-opacity="1"></stop><stop offset="85.55555555555554%" stop-color="#001220" stop-opacity="1"></stop></linearGradient></defs><g transform="translate(960, 540)"><path d="M-486 0C-461.2 -43.8 -436.4 -87.6 -426.1 -138.4C-415.7 -189.3 -419.7 -247.2 -393.2 -285.7C-366.6 -324.1 -309.5 -343.1 -262.2 -360.8C-214.8 -378.5 -177.1 -395 -135 -415.6C-93 -436.3 -46.5 -461.1 0 -486L0 0Z" fill="#002031"></path><path d="M-388.8 0C-369 -35 -349.2 -70.1 -340.9 -110.8C-332.6 -151.4 -335.8 -197.8 -314.5 -228.5C-293.3 -259.3 -247.6 -274.5 -209.7 -288.7C-171.8 -302.8 -141.7 -316 -108 -332.5C-74.4 -349 -37.2 -368.9 0 -388.8L0 0Z" fill="#003f51"></path><path d="M-291.6 0C-276.7 -26.3 -261.9 -52.6 -255.6 -83.1C-249.4 -113.6 -251.8 -148.3 -235.9 -171.4C-220 -194.5 -185.7 -205.9 -157.3 -216.5C-128.9 -227.1 -106.3 -237 -81 -249.4C-55.8 -261.8 -27.9 -276.7 0 -291.6L0 0Z" fill="#006168"></path><path d="M-194.4 0C-184.5 -17.5 -174.6 -35 -170.4 -55.4C-166.3 -75.7 -167.9 -98.9 -157.3 -114.3C-146.7 -129.6 -123.8 -137.2 -104.9 -144.3C-85.9 -151.4 -70.8 -158 -54 -166.2C-37.2 -174.5 -18.6 -184.5 0 -194.4L0 0Z" fill="#008372"></path><path d="M-97.2 0C-92.2 -8.8 -87.3 -17.5 -85.2 -27.7C-83.1 -37.9 -83.9 -49.4 -78.6 -57.1C-73.3 -64.8 -61.9 -68.6 -52.4 -72.2C-43 -75.7 -35.4 -79 -27 -83.1C-18.6 -87.3 -9.3 -92.2 0 -97.2L0 0Z" fill="#009473"></path></g><g transform="translate(0, 0)"><path d="M486 0C483.7 52.3 481.3 104.7 462.2 150.2C443.1 195.7 407.3 234.4 373 271C338.6 307.6 305.8 342.1 267.4 368.1C229.1 394.1 185.2 411.6 139.7 429.9C94.2 448.1 47.1 467.1 0 486L0 0Z" fill="#002031"></path><path d="M388.8 0C386.9 41.9 385 83.7 369.8 120.1C354.5 156.6 325.8 187.5 298.4 216.8C270.9 246.1 244.6 273.7 214 294.5C183.3 315.3 148.1 329.3 111.7 343.9C75.3 358.5 37.7 373.6 0 388.8L0 0Z" fill="#003f51"></path><path d="M291.6 0C290.2 31.4 288.8 62.8 277.3 90.1C265.9 117.4 244.4 140.6 223.8 162.6C203.2 184.5 183.5 205.3 160.5 220.9C137.4 236.5 111.1 247 83.8 257.9C56.5 268.9 28.3 280.2 0 291.6L0 0Z" fill="#006168"></path><path d="M194.4 0C193.5 20.9 192.5 41.9 184.9 60.1C177.2 78.3 162.9 93.7 149.2 108.4C135.5 123 122.3 136.8 107 147.2C91.6 157.6 74.1 164.7 55.9 172C37.7 179.2 18.8 186.8 0 194.4L0 0Z" fill="#008372"></path><path d="M97.2 0C96.7 10.5 96.3 20.9 92.4 30C88.6 39.1 81.5 46.9 74.6 54.2C67.7 61.5 61.2 68.4 53.5 73.6C45.8 78.8 37 82.3 27.9 86C18.8 89.6 9.4 93.4 0 97.2L0 0Z" fill="#009473"></path></g></svg>